<svg id="Capa_1" enable-background="new 0 0 497 497" height="512" viewBox="0 0 497 497" width="512" xmlns="http://www.w3.org/2000/svg"><g><path d="m439.502 191c0-105.485-85.512-190.998-190.997-191-104.504-.002-189.709 84.113-190.988 188.61-.468 38.245 10.316 73.937 29.237 103.992 2.888 4.587 3.725 10.143 2.46 15.413-1.443 6.01-2.211 12.282-2.211 18.735 0 36.762 24.719 67.75 58.442 77.251 1.176.331 2.74.632 4.54.903 14.659 2.201 25.518 14.777 25.518 29.6v26.496l.5 25.858c0 5.601 4.541 10.142 10.142 10.142h15.716c5.601 0 10.142-4.541 10.142-10.142 0 5.601 4.541 10.142 10.142 10.142h15.716c5.601 0 10.142-4.541 10.142-10.142 0 5.601 4.541 10.142 10.142 10.142h15.716c5.601 0 10.142-4.541 10.142-10.142 0 5.601 4.541 10.142 10.142 10.142h15.716c5.601 0 10.142-4.541 10.142-10.142l.5-25.858v-26.566c0-14.804 10.838-27.285 25.461-29.594 1.608-.254 3.012-.534 4.096-.839 33.724-9.5 58.443-40.489 58.443-77.251 0-5.923-.651-11.691-1.875-17.246-1.163-5.278-.278-10.798 2.645-15.344 19.13-29.752 30.229-65.16 30.229-103.16z" fill="#e3e0e4"/><path d="m195.502 451 .3 46h-9.66c-5.6 0-10.14-4.54-10.14-10.14l-.5-25.86v-26.5c0-14.82-10.86-27.39-25.52-29.6-1.8-.27-3.36-.57-4.54-.9-33.72-9.5-58.44-40.49-58.44-77.25 0-6.45.77-12.73 2.21-18.74 1.27-5.27.43-10.82-2.46-15.41-18.92-30.05-29.7-65.74-29.24-103.99.95-77.85 48.48-144.38 115.87-173.25-56.61 32.58-95.01 93.35-95.87 163.25-.46 38.25 10.32 73.94 29.24 103.99 2.89 4.59 3.73 10.14 2.46 15.41-1.44 6.01-2.21 12.29-2.21 18.74 0 36.76 24.72 67.75 58.44 77.25 1.18.33 2.74.63 4.54.9 14.66 2.21 25.52 14.78 25.52 29.6z" fill="#d4cfd5"/><path d="m248.502 330c9.537 0 17.984 6.151 20.912 15.227l9.607 29.782c2.708 8.394-3.552 16.991-12.372 16.991h-36.294c-8.82 0-15.08-8.597-12.372-16.991l9.607-29.782c2.928-9.076 11.376-15.227 20.912-15.227z" fill="#9b9696"/><path d="m279.302 382c-1.33 5.59-6.33 10-12.65 10h-36.3c-8.82 0-15.08-8.6-12.37-16.99l9.61-29.78c2.3-7.13 8.01-12.46 14.98-14.41-.81 1.37-1.47 2.85-1.98 4.41l-9.61 29.78c-2.71 8.39 3.55 16.99 12.37 16.99z" fill="#736e6e"/><path d="m175.99 319.5h-24.419c-16.055 0-29.07-13.015-29.07-29.07v-22.674c0-25.688 20.824-46.512 46.512-46.512h24.419c16.055 0 29.07 13.015 29.07 29.07v22.674c0 25.688-20.824 46.512-46.512 46.512z" fill="#9b9696"/><path d="m222.502 252.99v20c0 25.69-20.82 46.51-46.51 46.51h-24.42c-16.06 0-29.07-13.01-29.07-29.07v-20c0 16.06 13.01 29.07 29.07 29.07h24.42c25.69 0 46.51-20.82 46.51-46.51z" fill="#736e6e"/><path d="m346.33 319.5h-24.728c-26.013 0-47.101-21.088-47.101-47.101v-22.962c0-16.258 13.18-29.438 29.438-29.438h24.728c26.013 0 47.101 21.088 47.101 47.101v22.962c0 16.258-13.179 29.438-29.438 29.438z" fill="#9b9696"/><path d="m375.772 270.06v20c0 16.26-13.18 29.44-29.44 29.44h-24.73c-26.01 0-47.1-21.09-47.1-47.1v-20c0 26.01 21.09 47.1 47.1 47.1h24.73c16.26 0 29.44-13.18 29.44-29.44z" fill="#736e6e"/><g><path d="m212.002 494.358c-4.143 0-7.5-3.357-7.5-7.5v-17.377c0-4.143 3.357-7.5 7.5-7.5s7.5 3.357 7.5 7.5v17.377c0 4.143-3.357 7.5-7.5 7.5z" fill="#9b9696"/></g><g><path d="m248.002 494.358c-4.143 0-7.5-3.357-7.5-7.5v-17.377c0-4.143 3.357-7.5 7.5-7.5s7.5 3.357 7.5 7.5v17.377c0 4.143-3.357 7.5-7.5 7.5z" fill="#9b9696"/></g><g><path d="m283.98 494.358c-4.143 0-7.5-3.357-7.5-7.5v-17.377c0-4.143 3.357-7.5 7.5-7.5s7.5 3.357 7.5 7.5v17.377c0 4.143-3.358 7.5-7.5 7.5z" fill="#9b9696"/></g></g></svg>